<svg id="Layer_1" data-name="Layer 1" xmlns="http://www.w3.org/2000/svg" xmlns:xlink="http://www.w3.org/1999/xlink" viewBox="0 0 1071.66 192.88"><defs><linearGradient id="linear-gradient" x1="-23.53" y1="5.71" x2="125.98" y2="146.6" gradientUnits="userSpaceOnUse"><stop offset="0" stop-color="aqua"/><stop offset="0.47" stop-color="#00c1ff"/><stop offset="1" stop-color="#0080ff"/></linearGradient></defs><title>dalmolin_group</title><path d="M144.48,21.19h37.28c26.83,0,45.24,16.17,45.24,41s-18.41,41-45.24,41H144.48Zm36.34,66.45c16.29,0,27-9.72,27-25.43s-10.66-25.43-27-25.43H163.47V87.64Z" transform="translate(-3.8 -2.81)" style="fill:#fafafa"/><path d="M294.15,85.65H256.06l-7.26,17.58H229.34l36.57-82h18.75l36.69,82H301.42Zm-6-14.41-13-31.41-13,31.41Z" transform="translate(-3.8 -2.81)" style="fill:#fafafa"/><path d="M329.9,21.19h19V87.76H390v15.47H329.9Z" transform="translate(-3.8 -2.81)" style="fill:#fafafa"/><path d="M475.35,103.23,475.23,54,451.09,94.56h-8.55l-24-39.5v48.17H400.69v-82H416.4l30.71,51,30.23-51h15.59l.24,82Z" transform="translate(-3.8 -2.81)" style="fill:#fafafa"/><path d="M507.47,62.21c0-24.38,19-42.43,44.89-42.43s44.89,17.94,44.89,42.43-19.11,42.43-44.89,42.43S507.47,86.59,507.47,62.21Zm70.55,0C578,46.62,567,36,552.36,36s-25.67,10.66-25.67,26.25,11,26.25,25.67,26.25S578,77.8,578,62.21Z" transform="translate(-3.8 -2.81)" style="fill:#fafafa"/><path d="M611.55,21.19h19V87.76h41.14v15.47H611.55Z" transform="translate(-3.8 -2.81)" style="fill:#fafafa"/><path d="M682.34,21.19h19v82h-19Z" transform="translate(-3.8 -2.81)" style="fill:#fafafa"/><path d="M796,21.19v82H780.43l-40.9-49.81v49.81H720.78v-82h15.7L777.27,71V21.19Z" transform="translate(-3.8 -2.81)" style="fill:#fafafa"/><path d="M140.87,176.29l2.51-5.31c3.55,3.2,9.6,5.51,15.73,5.51,8.24,0,11.78-3.2,11.78-7.35,0-11.64-28.87-4.29-28.87-22,0-7.36,5.72-13.62,18.25-13.62,5.58,0,11.37,1.5,15.32,4.22l-2.25,5.45a24.56,24.56,0,0,0-13.07-3.88c-8.1,0-11.57,3.4-11.57,7.55,0,11.65,28.86,4.36,28.86,21.86,0,7.28-5.85,13.55-18.45,13.55C151.83,182.28,144.68,179.83,140.87,176.29Z" transform="translate(-3.8 -2.81)" style="fill:gray"/><path d="M204.73,165.26v16.47H198V165.12l-18.93-31.05h7.29L201.6,159.2l15.32-25.13h6.74Z" transform="translate(-3.8 -2.81)" style="fill:gray"/><path d="M225.16,176.29l2.52-5.31c3.54,3.2,9.6,5.51,15.73,5.51,8.23,0,11.78-3.2,11.78-7.35,0-11.64-28.87-4.29-28.87-22,0-7.36,5.72-13.62,18.24-13.62,5.59,0,11.37,1.5,15.32,4.22l-2.24,5.45a24.59,24.59,0,0,0-13.08-3.88c-8.1,0-11.57,3.4-11.57,7.55,0,11.65,28.87,4.36,28.87,21.86,0,7.28-5.86,13.55-18.45,13.55C236.12,182.28,229,179.83,225.16,176.29Z" transform="translate(-3.8 -2.81)" style="fill:gray"/><path d="M280.58,140H264.24v-5.93h39.42V140H287.32v41.73h-6.74Z" transform="translate(-3.8 -2.81)" style="fill:gray"/><path d="M345.67,175.81v5.92H311.09V134.07h33.63V140H317.9v14.64h23.89v5.78H317.9v15.39Z" transform="translate(-3.8 -2.81)" style="fill:gray"/><path d="M400.9,181.73,400.83,147,383.6,176h-3.13l-17.23-28.74v34.52h-6.53V134.07h5.58l19.88,33.5,19.61-33.5h5.58l.07,47.66Z" transform="translate(-3.8 -2.81)" style="fill:gray"/><path d="M417.38,176.29,419.9,171c3.54,3.2,9.6,5.51,15.72,5.51,8.24,0,11.78-3.2,11.78-7.35,0-11.64-28.87-4.29-28.87-22,0-7.36,5.72-13.62,18.25-13.62,5.58,0,11.37,1.5,15.32,4.22l-2.25,5.45a24.56,24.56,0,0,0-13.07-3.88c-8.1,0-11.57,3.4-11.57,7.55,0,11.65,28.86,4.36,28.86,21.86,0,7.28-5.85,13.55-18.45,13.55C428.34,182.28,421.19,179.83,417.38,176.29Z" transform="translate(-3.8 -2.81)" style="fill:gray"/><path d="M523.32,168.87c0,8.17-6.2,12.86-18.25,12.86H482.33V134.07h21.38c11,0,17.09,4.63,17.09,12.33A11.29,11.29,0,0,1,514.4,157C519.78,158.52,523.32,162.53,523.32,168.87Zm-34.18-29.28v15.25h14c6.94,0,10.89-2.59,10.89-7.63s-3.95-7.62-10.89-7.62Zm27.3,28.73c0-5.51-4.08-8-11.64-8H489.14v15.87H504.8C512.36,176.22,516.44,173.84,516.44,168.32Z" transform="translate(-3.8 -2.81)" style="fill:gray"/><path d="M533.88,134.07h6.8v47.66h-6.8Z" transform="translate(-3.8 -2.81)" style="fill:gray"/><path d="M551.1,157.9c0-14,10.76-24.37,25.4-24.37s25.26,10.35,25.26,24.37S591,182.28,576.5,182.28,551.1,171.86,551.1,157.9Zm43.85,0c0-10.55-7.9-18.31-18.45-18.31s-18.59,7.76-18.59,18.31,7.9,18.32,18.59,18.32S595,168.46,595,157.9Z" transform="translate(-3.8 -2.81)" style="fill:gray"/><path d="M612.18,134.07H619v41.74h25.8v5.92H612.18Z" transform="translate(-3.8 -2.81)" style="fill:gray"/><path d="M647.86,157.9c0-14,10.76-24.37,25.39-24.37s25.26,10.35,25.26,24.37-10.75,24.38-25.26,24.38S647.86,171.86,647.86,157.9Zm43.85,0c0-10.55-7.9-18.31-18.46-18.31s-18.58,7.76-18.58,18.31,7.9,18.32,18.58,18.32S691.71,168.46,691.71,157.9Z" transform="translate(-3.8 -2.81)" style="fill:gray"/><path d="M742,157.63h6.53v18.59c-4.76,4-11.37,6.06-18,6.06-14.64,0-25.4-10.28-25.4-24.38s10.76-24.37,25.54-24.37c7.55,0,13.95,2.52,18.31,7.35l-4.22,4.22a18.9,18.9,0,0,0-13.82-5.51c-11,0-19,7.69-19,18.31s8,18.32,18.93,18.32A20.18,20.18,0,0,0,742,173.15Z" transform="translate(-3.8 -2.81)" style="fill:gray"/><path d="M779.75,165.26v16.47H773V165.12l-18.93-31.05h7.28l15.26,25.13,15.31-25.13h6.74Z" transform="translate(-3.8 -2.81)" style="fill:gray"/><path d="M856.89,157.63h6.54v18.59c-4.77,4-11.37,6.06-18,6.06C830.75,182.28,820,172,820,157.9s10.76-24.37,25.53-24.37c7.56,0,14,2.52,18.31,7.35l-4.22,4.22a18.88,18.88,0,0,0-13.82-5.51c-11,0-19,7.69-19,18.31s8,18.32,18.92,18.32a20.16,20.16,0,0,0,11.17-3.07Z" transform="translate(-3.8 -2.81)" style="fill:gray"/><path d="M908.3,181.73,898,167.09c-1,.07-2,.14-3,.14H883.24v14.5h-6.81V134.07H895c12.39,0,19.88,6.27,19.88,16.62,0,7.35-3.81,12.66-10.48,15l11.3,16Zm-.21-31c0-6.81-4.56-10.69-13.27-10.69H883.24v21.44h11.58C903.53,161.44,908.09,157.5,908.09,150.69Z" transform="translate(-3.8 -2.81)" style="fill:gray"/><path d="M922.05,157.9c0-14,10.76-24.37,25.4-24.37s25.26,10.35,25.26,24.37S962,182.28,947.45,182.28,922.05,171.86,922.05,157.9Zm43.85,0c0-10.55-7.9-18.31-18.45-18.31s-18.59,7.76-18.59,18.31,7.9,18.32,18.59,18.32S965.9,168.46,965.9,157.9Z" transform="translate(-3.8 -2.81)" style="fill:gray"/><path d="M982.72,161.17v-27.1h6.81V160.9c0,10.55,4.83,15.32,13.41,15.32s13.48-4.77,13.48-15.32V134.07H1023v27.1c0,13.82-7.56,21.11-20.15,21.11S982.72,175,982.72,161.17Z" transform="translate(-3.8 -2.81)" style="fill:gray"/><path d="M1075.46,150.69c0,10.35-7.49,16.61-19.88,16.61H1043.8v14.43H1037V134.07h18.59C1068,134.07,1075.46,140.34,1075.46,150.69Zm-6.81,0c0-6.81-4.56-10.69-13.28-10.69H1043.8v21.38h11.57C1064.09,161.38,1068.65,157.5,1068.65,150.69Z" transform="translate(-3.8 -2.81)" style="fill:gray"/><path d="M90.73,76.65l2.7-44a15.18,15.18,0,1,0-12.61-2.06c.28.19.58.35.87.52-.2.77-.4,1.53-.64,2.29-.3,1-.6,2-.89,3-.48.68-1,1.34-1.47,2A51.73,51.73,0,0,1,61.94,52.69a42.85,42.85,0,0,1-10.12,3.75c-.88.19-1.74.45-2.63.57l-2.66.4c-.88.13-1.79.14-2.68.22a20,20,0,0,1-2.68.11,57.32,57.32,0,0,1-7.05-.37A15.18,15.18,0,1,0,25.6,72.3,16.63,16.63,0,0,0,27.73,71a69.3,69.3,0,0,1,3.43,7.11,51.73,51.73,0,0,1,4,21.66,43.9,43.9,0,0,1-1.81,10.65c-.29.85-.49,1.72-.83,2.55l-1,2.5c-.33.84-.77,1.63-1.14,2.44a24.37,24.37,0,0,1-1.25,2.37,59.46,59.46,0,0,1-3.77,5.81,14.83,14.83,0,0,0-5.3-1.39,15.19,15.19,0,1,0,14,16.25,14.52,14.52,0,0,0,0-2.38,70.84,70.84,0,0,1,7.72.58,51.72,51.72,0,0,1,20.76,7.35,43.51,43.51,0,0,1,8.32,6.89c.6.68,1.25,1.28,1.8,2l1.67,2.1c.56.7,1,1.48,1.54,2.21A24,24,0,0,1,77.36,162a63,63,0,0,1,3.15,6.18,15.18,15.18,0,1,0,17.38-.23,14.89,14.89,0,0,0-4.46-2.06l-2.7-44a22.64,22.64,0,0,0,0-45.2Zm-4.82,79-.7-1.79c-.58-1.41-1.07-2.85-1.72-4.23l-1.88-4.16-3.77-8.29-4.16-8.1c-.71-1.35-1.37-2.71-2.1-4l-2.27-4-2.26-3.94-1.32-2.28,4.74-3.14A22.63,22.63,0,0,0,88,121.85Zm-50-32.07c.16-.34.3-.69.43-1l1.38-1.5c1-1.13,2.07-2.2,3-3.37l2.88-3.48,5.75-7,3.57-4.77c1.09,1.8,2.18,3.59,3.19,5.42l3.39,6.26-25,12.46Q35.26,125.1,35.92,123.59ZM59.69,84.45c-.37.64-.75,1.27-1.11,1.92l-2.24,3.86L54.1,94.09c-.34.56-.69,1.11-1.05,1.66-1.21-1.66-2.47-3.28-3.7-4.93-.92-1.19-1.82-2.41-2.76-3.59l-2.87-3.5c-3.69-4.46-7.53-8.82-11.54-13Zm.17,21.14c-1.41-2.19-2.94-4.32-4.44-6.46.7-.93,1.4-1.85,2.07-2.81L60,92.57l2.55-3.76c.48-.73,1-1.46,1.47-2.19l5,2.51a22.65,22.65,0,0,0,0,20.23L63.9,112ZM70.47,86.75l-4.6-3,3.95-6.45c1.56-2.59,3-5.28,4.47-7.93S77.13,64,78.5,61.25c.68-1.36,1.39-2.71,2-4.08L82.44,53c.63-1.39,1.28-2.77,1.88-4.17L86,44.71l2,31.93A22.65,22.65,0,0,0,70.47,86.75ZM41.71,65.22a25.74,25.74,0,0,0,3-.45c1-.2,2-.34,3-.6l3-.78c1-.25,1.94-.65,2.91-1A49.13,49.13,0,0,0,64.5,57a54.15,54.15,0,0,0,13-12.48L77.05,46c-.49,1.4-1,2.77-1.54,4.16L74,54.3c-.54,1.37-1.13,2.73-1.7,4.09C71.1,61.12,70,63.88,68.7,66.54s-2.47,5.39-3.82,8l-3.29,6.31L38.41,65.53C39.51,65.45,40.61,65.36,41.71,65.22ZM33.42,77.07A73,73,0,0,0,29,70l.49-.43c4.33,5,8.38,10.29,12.24,15.67l2.59,3.64c.85,1.23,1.65,2.49,2.47,3.74,1.39,2.13,2.81,4.24,4.12,6.42l-4.07,6.32-5.2,7.29L39,116.32c-.3.42-.62.83-.94,1.24l.73-2.69c.28-1,.41-2,.62-3a49,49,0,0,0,.73-12.13A55.46,55.46,0,0,0,33.42,77.07ZM65,142.17a55.39,55.39,0,0,0-23-5.48,73.47,73.47,0,0,0-8.14.28c-.06-.3-.12-.59-.2-.88l27.74-18.36c.32.65.63,1.32,1,2l1.94,4,1.94,4c.63,1.34,1.18,2.72,1.78,4.08l3.5,8.18,3.11,8.32.08.21A48.47,48.47,0,0,0,65,142.17Z" transform="translate(-3.8 -2.81)" style="fill:url(#linear-gradient)"/></svg>